<svg xmlns="http://www.w3.org/2000/svg" version="1.1" x="0px" y="0px"
     viewBox="0 0 100 125" xml:space="preserve">
    <path fill="#fff"
          d="M79.4011993,41.8542557c-2.7537613,2.3026123-6.1955261,3.5607758-9.8000793,3.5607758  s-7.0461311-1.2574844-9.8022041-3.5630836c-2.7516365,2.3047333-6.1932144,3.5630836-9.8022079,3.5630836  c-3.606678,0-7.0461311-1.2574844-9.8000793-3.5630836c-2.756073,2.3047333-6.1978378,3.5630836-9.8022041,3.5630836  c-3.6066799,0-7.0461311-1.2574844-9.8000813-3.5607719c-2.5979099,2.1737671-5.8136225,3.4018364-9.2002239,3.5351219v37.0543289  h7.9194927l0.0015068-26.6271935c0-2.0690308,1.6824417-3.754425,3.752882-3.754425H42.252121  c2.0690308,0,3.7551956,1.6839447,3.7551956,3.754425v26.6252632h42.0287247l0.0007553-37.0774803  c-3.1786728-0.2411003-6.1804733-1.4564018-8.6352768-3.5094643L79.4011993,41.8542557z M82.4616394,74.6112061H52.0616951  V53.3075256h30.3999443V74.6112061z"/>
    <path fill="#fff"
          d="M85.0140381,17.5570583H72.984642l7.3927307,22.1118565c2.1292114,1.9679642,4.803894,3.1584244,7.6587143,3.4145699  c0.3865204,0.0354118,0.7775421,0.0565109,1.1700974,0.0565109c0.3684464,0,0.7368622-0.0173302,1.1037979-0.0474701  C92.9478302,42.8687477,95.4469757,41.846344,97.5,40.1443443L85.0140381,17.5570583z"/>
    <path fill="#fff"
          d="M14.9867191,17.5570583L2.5000005,40.1453323c1.9054503,1.5792122,4.194387,2.5601044,6.6219831,2.8743095  c0.5500183,0.071579,1.1083117,0.1190453,1.6726446,0.1190453c0.2026787,0,0.4023314-0.0195885,0.6012487-0.0286293  c3.0619831-0.1408958,5.9484434-1.3426285,8.2192297-3.4350166l7.3927364-22.1176453L14.9867191,17.5570583z"/>
    <path fill="#fff"
          d="M29.404562,17.5570583l-7.4907207,22.4127522c2.3695431,2.0410652,5.3493557,3.1698036,8.4828987,3.1698036  c3.2292099,0,6.3002625-1.1987152,8.7022018-3.3634567l1.6681137-22.2198715L29.404562,17.5570583z"/>
    <path fill="#fff"
          d="M70.5865479,17.5570583H59.223938l1.6703835,22.2160168c2.4050293,2.1668205,5.476078,3.3663483,8.7068367,3.3663483  c3.1312256,0,6.1089172-1.1263847,8.4784622-3.1667175L70.5865479,17.5570583z"/>
    <path fill="#fff"
          d="M56.9440842,17.5570583H43.0475998l-1.6748962,22.2873783c2.3921089,2.1216927,5.4292107,3.2947922,8.6254349,3.2947922  c3.1960373,0,6.233139-1.172348,8.6231232-3.2924767L56.9440842,17.5570583z"/>
</svg>